<svg id="user" xmlns="http://www.w3.org/2000/svg" viewBox="0 0 87 92"><defs><style>.cls-1,.cls-3,.cls-4{fill:#fff;}.cls-2{fill:#0521f7;}.cls-3{font-size:72.5px;}.cls-3,.cls-4{font-family:Seravek-Bold, Seravek;font-weight:700;}.cls-4{font-size:71.71px;}</style></defs><title>userlogo</title><rect class="cls-1" x="2" y="6" width="60" height="60"/><path class="cls-1" d="M60,4V60H4V4H60m4-4H0V64H64V0Z" transform="translate(0 4)"/><polygon class="cls-2" points="87 80 87 81 87 80 87 80"/><rect class="cls-2" x="6" y="10" width="22" height="52"/><path class="cls-2" d="M26,8V56H8V8H26m4-4H4V60H30V4Z" transform="translate(0 4)"/><rect class="cls-2" x="36" y="10" width="22" height="52"/><path class="cls-2" d="M56,8V56H38V8H56m4-4H34V60H60V4Z" transform="translate(0 4)"/><text class="cls-3" transform="translate(6 60.39) scale(0.62 1)">L</text><text class="cls-4" transform="translate(37 59.73) scale(0.32 1)">M</text></svg>