<svg id="user" xmlns="http://www.w3.org/2000/svg" viewBox="0 0 87 77"><defs><style>.cls-1{fill:#0521f7;}.cls-2{fill:#fff;}</style></defs><title>useruser</title><rect class="cls-1" x="2" y="2" width="60" height="60"/><path class="cls-2" d="M60,4V60H4V4H60m4-4H0V64H64V0Z"/><path class="cls-2" d="M31.22,41.5c11.43,0,20.36,5.79,21.65,8.26-1.7,1.44-9.26,3.74-22.41,3.74-14.2,0-18.83-2.71-19.45-3.56.45-2.15,8.18-8.44,20.21-8.44m0-4C17.63,37.5,7,45,7,50s9.86,7.5,23.46,7.5S57,55,57,50,44.82,37.5,31.22,37.5Z"/><path class="cls-2" d="M32,9A11,11,0,1,1,21,20,11,11,0,0,1,32,9m0-4A15,15,0,1,0,47,20,15,15,0,0,0,32,5Z"/><polygon class="cls-1" points="87 76 87 77 87 76 87 76"/></svg>